<?xml version="1.0" encoding="utf-8"?>
<!-- Generator: Adobe Illustrator 23.0.5, SVG Export Plug-In . SVG Version: 6.00 Build 0)  -->
<svg version="1.1" id="Capa_1" xmlns="http://www.w3.org/2000/svg" xmlns:xlink="http://www.w3.org/1999/xlink" x="0px" y="0px"
	 viewBox="0 0 800 800" style="enable-background:new 0 0 800 800;" xml:space="preserve">
<style type="text/css">
	.st0{fill:#FFFFFF;}
</style>
<g>
	<path class="st0" d="M726.62,255.09H65.17c-3.04,0-5.5-2.46-5.5-5.5v-47.71c0-3.04,2.46-5.5,5.5-5.5h661.45
		c3.04,0,5.5,2.46,5.5,5.5v47.71C732.12,252.63,729.66,255.09,726.62,255.09z"/>
	<path class="st0" d="M726.62,618H65.17c-3.04,0-5.5-2.46-5.5-5.5v-47.71c0-3.04,2.46-5.5,5.5-5.5h661.45c3.04,0,5.5,2.46,5.5,5.5
		v47.71C732.12,615.54,729.66,618,726.62,618z"/>
	<line class="st0" x1="217.11" y1="407.19" x2="884.22" y2="407.19"/>
	<line class="st0" x1="57" y1="220.4" x2="590.69" y2="204.39"/>
	<path class="st0" d="M726.62,436.54H65.17c-3.04,0-5.5-2.46-5.5-5.5v-47.71c0-3.04,2.46-5.5,5.5-5.5h661.45
		c3.04,0,5.5,2.46,5.5,5.5v47.71C732.12,434.08,729.66,436.54,726.62,436.54z"/>
</g>
</svg>
