<?xml version="1.0" encoding="utf-8"?>
<!-- Generator: Adobe Illustrator 23.0.5, SVG Export Plug-In . SVG Version: 6.00 Build 0)  -->
<svg version="1.1" id="Capa_1" xmlns="http://www.w3.org/2000/svg" xmlns:xlink="http://www.w3.org/1999/xlink" x="0px" y="0px"
	 viewBox="0 0 800 800" style="enable-background:new 0 0 800 800;" xml:space="preserve">
<style type="text/css">
	.st0{fill:none;stroke:#FFFFFF;stroke-width:11;stroke-miterlimit:10;}
	.st1{fill:none;stroke:#FFFFFF;stroke-width:10;stroke-miterlimit:10;}
	.st2{fill:none;stroke:#FFFFFF;stroke-width:7;stroke-miterlimit:10;}
	.st3{fill:#FFFFFF;stroke:#FFFFFF;stroke-width:0.75;stroke-miterlimit:10;}
</style>
<path class="st0" d="M190.15,311.88L158.29,693c0,0-14.71,82.11,55.15,84.56h340.68c0,0,63.72-9.8,63.72-77.2l-33.09-388.47H190.15z
	"/>
<path class="st1" d="M254.3,402.58c0,0,115.38,220.27,262.22,0"/>
<path class="st2" d="M430.39,305.57c0,0,86.6-213.61,121.24-248.25c17.77-26.45,46.03-37.44,65.25-29.23
	c19.39,8.28,25.6,34.37,27.12,40.78c3.5,14.73,1.67,27.33,0,34.64c-19.24,69.28-38.49,138.56-57.73,207.84L430.39,305.57z"/>
<path class="st3" d="M437.31,288.77c11.83-4.51,27.41-8.86,45.96-10.01c6.76-0.42,13.08-0.36,18.88,0
	c18.58,0.42,31.45-4.27,32.14-9.78c0.61-4.86-8.16-11-19.55-15.39c0,0-52.1-15.47-60.66-4.59L437.31,288.77z"/>
<path class="st3" d="M471.95,217.91c10.42-3.97,24.15-7.81,40.49-8.82c5.96-0.37,11.53-0.31,16.63,0
	c16.37,0.37,27.7-3.76,28.31-8.62c0.54-4.28-7.19-9.69-17.23-13.56c0,0-45.9-13.63-53.44-4.04L471.95,217.91z"/>
<path class="st3" d="M500.81,149.7c9.15-3.49,21.2-6.85,35.53-7.74c5.23-0.32,10.12-0.28,14.6,0c14.36,0.32,24.31-3.3,24.85-7.56
	c0.47-3.76-6.31-8.51-15.12-11.9c0,0-40.28-11.96-46.9-3.55L500.81,149.7z"/>
<path class="st3" d="M533.66,87.22c7.56-1.86,17.39-3.33,28.78-2.62c4.15,0.26,8,0.77,11.51,1.43c11.3,1.66,19.5-0.22,20.34-3.53
	c0.74-2.92-4.14-7.33-10.76-10.86c0,0-30.6-13.38-36.64-7.39L533.66,87.22z"/>
<path class="st2" d="M284.18,307.64c2.53-22.05,6.1-45.39,11.05-69.79c11.56-57.08,27.97-106.95,45.13-148.93
	c12.2-29.44,37.74-45.78,58.21-41.52c20.64,4.29,31.87,28.65,34.63,34.63c7.13,15.47,6.88,29.6,6.83,33.96
	c-0.34,31.65-4.01,103.05-11.51,197.43C380.4,311.49,332.29,309.56,284.18,307.64z"/>
<path class="st3" d="M292.89,268.83c9.44-5.95,22.14-12.42,37.95-16.63c5.77-1.54,11.24-2.58,16.31-3.28
	c16.12-2.87,26.42-9.15,26.06-14.03c-0.32-4.31-8.96-8.09-19.56-9.9c0,0-47.68-4.32-53.19,6.57L292.89,268.83z"/>
<path class="st3" d="M307.75,196.27c8.28-5.22,19.43-10.9,33.31-14.59c5.06-1.35,9.86-2.26,14.31-2.88
	c14.15-2.52,23.19-8.03,22.87-12.31c-0.28-3.78-7.86-7.1-17.17-8.69c0,0-41.85-3.79-46.68,5.77L307.75,196.27z"/>
<path class="st3" d="M327.63,128.54c7.04-3.31,16.39-6.69,27.7-8.25c4.12-0.57,8-0.82,11.57-0.87c11.4-0.6,19.07-4.06,19.24-7.47
	c0.15-3.01-5.5-6.37-12.69-8.53c0,0-32.63-7.08-37.38-0.02L327.63,128.54z"/>
</svg>
