<?xml version="1.0" encoding="utf-8"?>
<!-- Generator: Adobe Illustrator 23.0.5, SVG Export Plug-In . SVG Version: 6.00 Build 0)  -->
<svg version="1.1" id="Capa_1" xmlns="http://www.w3.org/2000/svg" xmlns:xlink="http://www.w3.org/1999/xlink" x="0px" y="0px"
	 viewBox="0 0 800 800" style="enable-background:new 0 0 800 800;" xml:space="preserve">
<style type="text/css">
	.st0{fill:none;stroke:#FFFFFF;stroke-width:5;stroke-miterlimit:10;}
	.st1{clip-path:url(#SVGID_4_);fill:none;stroke:#FFFFFF;stroke-width:5;stroke-miterlimit:10;}
	.st2{clip-path:url(#SVGID_5_);fill:none;stroke:#FFFFFF;stroke-width:5;stroke-miterlimit:10;}
	.st3{clip-path:url(#SVGID_6_);fill:none;stroke:#FFFFFF;stroke-width:5;stroke-miterlimit:10;}
	.st4{fill:none;stroke:#FFFFFF;stroke-width:7;stroke-miterlimit:10;}
	.st5{fill:#FFFFFF;}
	.st6{fill:none;stroke:#FFFFFF;stroke-miterlimit:10;}
	.st7{fill:none;stroke:#FFFFFF;stroke-width:6;stroke-miterlimit:10;}
	.st8{font-family:'Chewy-Regular';}
	.st9{font-size:169.5819px;}
	.st10{letter-spacing:8.2;}
</style>
<g>
	<path class="st0" d="M697.94,261.94l-12.28,39.73c0,0-26-34.67-64.28-20.95l10.11-36.84"/>
	<g>
		<defs>
			
				<rect id="SVGID_1_" x="638.91" y="197.77" transform="matrix(0.9939 0.11 -0.11 0.9939 27.5585 -72.9234)" width="71.51" height="31.06"/>
		</defs>
		<clipPath id="SVGID_4_">
			<use xlink:href="#SVGID_1_"  style="overflow:visible;"/>
		</clipPath>
		<circle class="st1" cx="673" cy="228.37" r="25.64"/>
		<use xlink:href="#SVGID_1_"  style="overflow:visible;fill:none;stroke:#FFFFFF;stroke-width:5;stroke-miterlimit:10;"/>
	</g>
	<g>
		<defs>
			
				<rect id="SVGID_3_" x="592.38" y="208.39" transform="matrix(0.5247 -0.8513 0.8513 0.5247 107.9297 641.1398)" width="71.51" height="31.06"/>
		</defs>
		<clipPath id="SVGID_5_">
			<use xlink:href="#SVGID_3_"  style="overflow:visible;"/>
		</clipPath>
		<circle class="st2" cx="641.05" cy="231.87" r="25.64"/>
		<use xlink:href="#SVGID_3_"  style="overflow:visible;fill:none;stroke:#FFFFFF;stroke-width:5;stroke-miterlimit:10;"/>
	</g>
	<g>
		<defs>
			
				<rect id="SVGID_2_" x="675.73" y="234.6" transform="matrix(-0.1065 0.9943 -0.9943 -0.1065 1035.9529 -430.6731)" width="71.51" height="31.06"/>
		</defs>
		<clipPath id="SVGID_6_">
			<use xlink:href="#SVGID_2_"  style="overflow:visible;"/>
		</clipPath>
		<circle class="st3" cx="696.4" cy="248.51" r="25.64"/>
		<use xlink:href="#SVGID_2_"  style="overflow:visible;fill:none;stroke:#FFFFFF;stroke-width:5;stroke-miterlimit:10;"/>
	</g>
	<path class="st0" d="M687.1,249.66c0,0-25.28-13.72-39-10.11"/>
</g>
<path class="st4" d="M502.81,265.94l17.19-2.2l-5.1-39.94c-0.32-2.47-2.58-4.22-5.05-3.9l-10.03,1.28
	c-1.48,0.19-2.53,1.55-2.34,3.03L502.81,265.94z"/>
<line class="st4" x1="503.83" y1="279.64" x2="505.2" y2="290.39"/>
<line class="st4" x1="506.21" y1="298.27" x2="510.24" y2="329.8"/>
<path class="st4" d="M515.9,393.15l23.41-2.99c4.61-0.59,7.88-4.81,7.29-9.42l-14.07-110.1c-0.59-4.61-4.81-7.88-9.42-7.29
	l-23.41,2.99c-4.61,0.59-7.88,4.81-7.29,9.42l14.07,110.1C507.07,390.48,511.29,393.74,515.9,393.15z"/>
<line class="st4" x1="535.49" y1="390.65" x2="539.17" y2="419.41"/>
<path class="st4" d="M517.54,392.91"/>
<line class="st4" x1="518.06" y1="392.89" x2="523.9" y2="430.46"/>
<g id="XMLID_1_">
	<g>
		<path class="st5" d="M601.99,433.59c0,0-20.17,14.67-46.75-11c-0.15-0.14-0.29-0.28-0.45-0.42c-5.85-5.44-16.95-11.83-25.35-8.42
			c-4.02,1.64-6.57,5.38-6.75,5.64c-3.11,4.68-3.16,10.74-3.21,16.04c0,0.5,0,0.86,0,0.92c0.26,14.21,0.23,28.43,0.46,42.63
			c0.17,10.53-2.06,28.84-13.29,62.79c0,0,8.25,20.17,35.75,15.58c0,0,12.83-2.75,3.67-12.83c0,0-6.42-13.75-5.5-21.08h7.33
			c0,0,11,13.75,8.25,34.83c0,0-3.67,12.83,11,16.5c0,0,9.17,26.58,22.92,34.83c0,0,19.25,8.25,71.5-5.5c0,0,0.92-18.33,24.75-24.75
			c0,0,0.92,23.83,42.17,20.17c0,0,36.67,0,44-48.59c0,0,13.75,0,27.5-19.25c-41.24-34.82-60.44-62.47-69.15-83.65
			c0,0,0,0-0.01-0.01c-0.54-0.16-17.81-5.6-39.46-56.11c0.56,1.72,31.73,96.68,93.49,146.65c0,0-9.17,7.33-16.5,7.33
			c-7.27,0-77.5-91.76-78.82-93.48l73.32,108.14c0,0-1.83,26.58-37.58,32.08c0,0-14.67-49.5-59.59-116.42l39.42,95.34
			c0,0-28.42-5.5-46.75,18.33l-26.58-91.67l15.58,102.67c0,0-52.25,12.83-56.84,0.92c0,0,10.08-21.08,2.75-97.17
			c0,0-4.58,62.34-6.42,65.09c-1.83,2.75-20.17,0-23.83-5.5c0,0,32.99-30.24-7.32-88.9c0.39,0.83,12.74,27.75,7.32,44.9
			c0,0-24.75-10.08-42.17,3.67c0,0,3.21-13.52,5.5-31.51c3.91-30.63,1.92-46.54,0.97-52.71c-0.37-2.4-0.72-4.36-0.97-5.62
			c-1.5-5.98,0.71-12.32,5.39-14.7c3.48-1.78,9.17-0.83,18.44,6.45c5.65,4.23,25.58,18.08,45.8,11.87c2.06-0.63,4.24-1.5,6.45-2.7
			L601.99,433.59z"/>
	</g>
	<g>
		<path class="st6" d="M691.38,391.91c21.65,50.51,38.92,55.96,39.46,56.11"/>
		<path class="st6" d="M689.55,452.41c1.32,1.71,71.55,93.48,78.82,93.48c7.33,0,16.5-7.33,16.5-7.33
			c-61.77-49.96-92.94-144.92-93.49-146.65c0-0.01,0-0.01,0-0.01c0-0.01-0.01-0.01-0.01-0.02"/>
		<path class="st6" d="M555.71,475.32c40.32,58.66,7.32,88.9,7.32,88.9c3.67,5.5,22,8.25,23.83,5.5c1.83-2.75,6.42-65.09,6.42-65.09
			c7.33,76.09-2.75,97.17-2.75,97.17c4.58,11.92,56.84-0.92,56.84-0.92l-15.58-102.67l26.58,91.67
			c18.33-23.83,46.75-18.33,46.75-18.33l-39.42-95.34c44.92,66.92,59.59,116.42,59.59,116.42c35.75-5.5,37.58-32.08,37.58-32.08
			l-73.32-108.14c-0.01-0.02-0.02-0.03-0.02-0.03"/>
		<path class="st6" d="M555.24,421.67c-0.65-14.1-0.5-34.51,3.67-58.67c4.24-24.55,6.51-37.67,16.5-51.34
			c3.03-4.14,25.22-33.44,61.42-32.08c31.82,1.2,50.8,25.19,54.09,29.33c9.11,11.51,12.94,23.19,14.67,30.25
			c2.59,10.88,6.42,27.27,10.77,47.33c5.46,25.15,8.49,40.98,9.4,45.26c1.05,4.92,2.66,10.34,5.1,16.26
			c0.01,0.01,0.01,0.01,0.01,0.01c8.71,21.18,27.9,48.83,69.15,83.65c-13.75,19.25-27.5,19.25-27.5,19.25
			c-7.33,48.59-44,48.59-44,48.59c-41.25,3.67-42.17-20.17-42.17-20.17c-23.83,6.42-24.75,24.75-24.75,24.75
			c-52.25,13.75-71.5,5.5-71.5,5.5c-13.75-8.25-22.92-34.83-22.92-34.83c-14.67-3.67-11-16.5-11-16.5
			c2.75-21.08-8.25-34.83-8.25-34.83h-7.33c-0.92,7.33,5.5,21.08,5.5,21.08c9.17,10.08-3.67,12.83-3.67,12.83
			c-27.5,4.58-35.75-15.58-35.75-15.58c11.23-33.95,13.47-52.26,13.29-62.79c-0.23-14.2-0.2-28.42-0.46-42.63c0-0.06,0-0.42,0-0.92
			c0.05-5.3,0.1-11.37,3.21-16.04c0.17-0.26,2.72-4,6.75-5.64c8.4-3.4,19.5,2.99,25.35,8.42c0.16,0.14,0.3,0.28,0.45,0.42
			c26.58,25.67,46.75,11,46.75,11l0.46,1.38c-2.22,1.2-4.39,2.07-6.45,2.7c-20.22,6.21-40.15-7.65-45.8-11.87
			c-9.28-7.29-14.96-8.23-18.44-6.45c-4.68,2.38-6.89,8.73-5.39,14.7c0.25,1.26,0.61,3.22,0.97,5.62
			c0.94,6.17,2.93,22.08-0.97,52.71c-2.29,17.99-5.5,31.51-5.5,31.51c17.42-13.75,42.17-3.67,42.17-3.67
			c5.42-17.15-6.94-44.08-7.32-44.9c0,0,0,0,0-0.01c-0.01,0-0.01-0.01-0.01-0.01"/>
	</g>
</g>
<ellipse transform="matrix(0.2317 -0.9728 0.9728 0.2317 86.4317 853.8511)" class="st5" cx="583.79" cy="372.21" rx="27.04" ry="9.76"/>
<path class="st7" d="M727.51,450.09c-4.92-23.67-9.34-44.81-13.29-63.71c0,0-2.65-12.66-7.33-33c-2.81-12.2-4.24-18.37-5.35-21.47
	c-1.93-5.39-7.97-21.63-23.07-34.45c-4.35-3.69-23.27-18.84-49.22-17.42c-34.17,1.86-57.13,31.17-65.75,51.87
	c-4.19,10.07-5.47,20.26-7.87,40.72c-2.55,21.77-2.68,40-2.29,52.71"/>
<text transform="matrix(0.9755 0 0 1 0 414.4746)"><tspan x="0" y="0" class="st5 st8 st9 st10">FLOUR</tspan><tspan x="0" y="147.57" class="st5 st8 st9 st10">HOUSE</tspan></text>
</svg>
